<?xml version="1.0" standalone="no"?>
<!DOCTYPE svg PUBLIC "-//W3C//DTD SVG 20010904//EN"
 "http://www.w3.org/TR/2001/REC-SVG-20010904/DTD/svg10.dtd">
<svg version="1.0" xmlns="http://www.w3.org/2000/svg"
 width="300.000000pt" height="75.000000pt" viewBox="0 0 300.000000 75.000000"
 preserveAspectRatio="xMidYMid meet">
<metadata>
Created by potrace 1.10, written by Peter Selinger 2001-2011
</metadata>
<g transform="translate(0.000000,75.000000) scale(0.100000,-0.100000)"
fill="#000000" stroke="none">
<path d="M1780 615 c0 -8 -7 -15 -16 -15 -9 0 -14 -7 -12 -17 2 -12 13 -18 33
-19 31 0 45 11 45 36 -1 11 -4 10 -15 -4 -15 -20 -20 -12 -16 22 1 6 -3 12 -9
12 -5 0 -10 -7 -10 -15z"/>
<path d="M1197 613 c-18 -5 -18 -5 0 -19 17 -13 17 -14 -4 -20 -23 -6 -28 -15
-17 -27 4 -4 61 9 70 17 1 1 5 12 9 26 7 24 7 24 -12 7 -21 -18 -35 -14 -26 9
3 8 4 13 2 13 -2 -1 -12 -3 -22 -6z"/>
<path d="M2396 604 c-9 -8 -16 -21 -17 -27 0 -7 -5 -1 -11 13 -7 18 -12 21
-15 10 -2 -8 -6 -21 -9 -28 -3 -11 -7 -10 -20 2 -8 9 -20 14 -25 11 -5 -4 -9
-2 -9 3 0 13 -27 23 -45 16 -8 -4 -15 -12 -15 -20 0 -22 -48 -17 -60 6 -11 21
-44 27 -55 10 -4 -6 -11 -7 -17 -4 -6 4 -8 -1 -6 -11 5 -27 28 -30 35 -6 7 28
19 27 27 -3 5 -22 30 -36 67 -36 11 0 19 12 23 33 l7 32 19 -23 c11 -14 24
-20 35 -16 14 6 16 0 13 -37 -3 -44 -3 -44 -43 -45 -90 -1 -105 -4 -105 -19 0
-18 12 -19 28 -3 9 9 12 8 12 -4 0 -25 49 -29 61 -6 15 29 27 11 31 -47 2 -42
0 -50 -16 -53 -11 -2 -16 0 -12 6 8 13 -17 18 -65 14 -35 -4 -37 -6 -36 -38 1
-19 2 -34 2 -34 1 0 13 9 26 21 23 20 24 20 39 1 12 -14 24 -18 49 -14 32 4
34 3 27 -21 -3 -15 -1 -29 5 -33 8 -5 10 4 7 30 -2 20 0 36 4 36 4 0 8 7 8 15
0 24 37 17 58 -10 27 -34 55 -34 42 -1 -7 20 -6 23 10 19 10 -3 21 -16 24 -29
7 -25 26 -24 26 1 0 21 -29 45 -45 39 -8 -4 -15 -2 -15 4 0 5 -10 7 -23 5 -18
-4 -32 5 -55 32 -28 31 -32 43 -32 90 0 30 5 55 10 55 6 0 10 -8 10 -17 0 -14
4 -12 25 7 14 13 25 34 25 47 0 26 12 30 30 8 17 -20 27 -19 33 6 3 13 1 19
-6 16 -7 -2 -20 0 -29 4 -11 6 -22 4 -32 -7z"/>
<path d="M295 597 c-6 -14 -10 -16 -16 -6 -12 21 -22 3 -15 -27 l7 -27 21 20
c11 11 18 29 16 39 -5 18 -5 18 -13 1z"/>
<path d="M330 592 c0 -12 9 -26 21 -32 17 -10 21 -8 26 9 7 28 21 26 29 -3 3
-13 13 -27 22 -30 10 -3 23 -9 30 -12 7 -3 12 1 12 10 0 9 -11 21 -24 25 -13
5 -26 17 -29 25 -7 19 -43 21 -53 4 -5 -7 -11 -5 -21 7 -12 18 -13 18 -13 -3z"/>
<path d="M759 592 c-10 -9 -21 -44 -26 -77 -7 -49 -6 -63 7 -75 13 -13 15 -7
11 62 -2 49 1 78 7 78 6 0 12 -8 14 -17 3 -11 6 -5 9 15 6 36 2 39 -22 14z"/>
<path d="M925 595 c-6 -9 -27 -18 -48 -22 -30 -4 -41 -2 -53 13 -13 18 -14 17
-12 -16 2 -19 8 -34 14 -33 17 3 24 -141 11 -216 -10 -58 -15 -66 -55 -97 -25
-19 -41 -34 -37 -34 4 0 28 16 51 36 24 19 44 32 43 27 0 -4 -21 -25 -46 -46
-41 -34 -52 -38 -90 -35 -43 3 -59 -6 -25 -15 10 -3 5 -6 -13 -7 l-30 -2 35
-8 c19 -5 46 -7 60 -4 38 8 100 36 100 46 0 11 11 10 30 -2 13 -9 13 -11 0
-20 -10 -7 18 -10 92 -10 82 0 106 3 103 13 -2 6 7 20 21 31 l26 19 -7 -24
c-7 -20 -6 -22 7 -11 12 10 21 9 45 -3 40 -20 98 -25 220 -18 80 5 100 9 96
19 -3 9 2 14 12 14 9 0 13 -4 10 -10 -7 -11 23 -2 41 12 7 5 16 2 24 -7 7 -8
17 -15 23 -15 6 0 2 6 -9 14 -10 8 -16 17 -13 20 10 10 56 -18 52 -31 -6 -16
272 -6 350 13 44 11 64 11 80 3 18 -9 20 -9 10 2 -21 22 -15 31 9 15 13 -9 45
-16 73 -17 27 -1 61 -5 75 -9 16 -6 2 -7 -37 -3 -37 3 -63 2 -63 -4 0 -5 57
-10 131 -12 90 -1 129 1 124 8 -3 7 2 11 14 11 13 0 19 -5 15 -14 -5 -12 11
-14 93 -10 133 5 141 7 135 23 -4 11 -1 11 18 1 18 -10 20 -14 9 -21 -9 -5 28
-9 94 -9 72 0 106 3 102 10 -4 6 3 18 15 28 23 19 40 92 21 92 -6 0 -11 -15
-11 -33 0 -51 -13 -57 -127 -57 l-103 0 0 45 c0 31 5 47 15 51 8 4 15 10 15
16 0 5 7 16 15 24 17 17 21 59 5 49 -5 -3 -7 0 -4 9 3 8 0 24 -6 37 -11 20
-10 21 8 17 15 -4 18 -1 15 13 -3 10 -15 19 -27 21 -17 2 -21 10 -21 43 0 40
0 40 38 38 35 -2 37 -1 37 28 0 30 0 30 -21 10 -25 -23 -64 -32 -78 -18 -8 8
-11 -8 -11 -51 0 -66 -4 -70 -48 -48 -15 7 -48 16 -74 20 -52 8 -71 -6 -44
-32 15 -15 16 -15 16 1 0 23 17 22 25 -2 7 -22 38 -37 43 -21 2 6 16 -2 30
-17 l27 -28 3 28 c2 15 7 27 12 27 16 0 21 -39 19 -123 -3 -74 -6 -85 -30
-110 -26 -26 -32 -27 -128 -27 -94 0 -115 6 -116 32 0 3 -4 10 -9 15 -5 4 -6
3 -2 -4 3 -6 2 -15 -4 -18 -6 -4 -8 -15 -5 -26 5 -16 2 -19 -22 -18 l-28 1 25
7 25 8 -30 6 c-16 4 -50 7 -75 7 -86 -1 -150 6 -161 17 -9 9 -8 29 1 78 7 37
10 86 6 111 -3 26 -2 44 4 44 12 0 12 86 0 115 -7 18 -8 18 -15 -8 -6 -22 -10
-25 -21 -16 -11 9 -12 15 -3 26 9 10 9 17 1 25 -8 8 -13 4 -18 -16 -6 -26 -7
-26 -26 -9 -14 13 -23 15 -36 7 -19 -12 -82 1 -82 16 0 6 -4 10 -10 10 -26 0
-6 -30 30 -44 50 -20 70 -20 70 -1 0 24 17 17 24 -10 4 -14 11 -22 19 -19 15
5 47 -85 47 -133 0 -50 -29 -119 -55 -133 -14 -7 -23 -15 -21 -18 8 -7 49 27
63 50 7 13 12 18 13 11 0 -6 -11 -25 -25 -42 -33 -38 -100 -53 -233 -51 -53 0
-120 -2 -148 -6 -47 -6 -53 -4 -79 22 -16 16 -29 35 -30 44 -3 24 -27 70 -38
70 -5 0 -7 -6 -4 -14 3 -7 9 -34 12 -60 4 -25 11 -46 16 -46 5 0 6 -7 3 -15
-4 -8 -13 -15 -21 -15 -13 0 -13 2 -2 17 13 15 12 15 -6 6 -31 -17 -274 -27
-310 -13 -16 6 -49 30 -72 53 -42 41 -43 41 -43 15 0 -15 5 -28 11 -30 9 -3 9
-10 0 -26 -11 -21 -19 -22 -121 -22 l-110 0 0 38 c0 20 -2 46 -4 57 -2 11 -1
15 1 8 6 -16 33 -5 33 13 0 8 4 14 9 14 18 0 23 58 7 89 -21 39 -20 44 4 31
11 -6 20 -7 20 -3 0 16 -16 31 -35 34 -29 6 -33 75 -5 84 11 4 28 4 39 0 15
-4 20 0 23 25 5 33 -2 39 -17 15z m312 -417 c47 -1 47 -1 8 -5 -44 -5 -115 12
-115 28 0 5 13 3 30 -6 16 -8 51 -16 77 -17z m663 13 c0 -9 -165 -10 -174 -1
-2 3 36 6 85 8 49 1 89 -2 89 -7z"/>
<path d="M967 589 c6 -23 44 -44 66 -36 8 3 17 15 20 27 5 20 4 20 -11 7 -19
-16 -42 -12 -55 9 -12 21 -26 16 -20 -7z"/>
<path d="M1431 601 c-9 -6 -11 -16 -7 -27 7 -18 8 -17 25 4 9 13 20 20 24 16
4 -4 7 -41 8 -83 0 -65 2 -72 11 -47 7 19 13 24 18 16 13 -22 29 -1 36 47 6
42 8 45 20 28 13 -17 15 -17 34 8 17 22 25 25 45 17 18 -7 28 -5 40 6 27 27
19 -40 -9 -73 -13 -15 -25 -32 -27 -38 -2 -5 -7 -9 -10 -8 -11 4 -63 -57 -55
-64 4 -4 12 0 17 10 12 21 59 23 59 2 0 -13 -4 -14 -20 -5 -18 10 -20 8 -20
-18 0 -37 9 -45 28 -25 15 14 17 10 32 -43 20 -70 46 -82 44 -19 -1 21 -7 41
-13 43 -6 2 -11 13 -11 23 0 13 4 18 12 13 8 -5 10 8 5 49 -3 33 -2 57 4 57 5
0 9 27 9 61 l0 61 -62 -7 c-35 -4 -67 -12 -73 -18 -5 -7 -20 -11 -33 -9 -17 3
-25 -2 -29 -17 -3 -12 -10 -21 -15 -21 -5 0 -6 5 -3 10 3 6 2 10 -3 10 -5 0
-14 11 -20 25 -12 25 -36 32 -61 16z"/>
<path d="M2488 594 c12 -22 83 -47 97 -33 11 11 -13 31 -27 23 -4 -3 -21 2
-37 11 -38 19 -44 19 -33 -1z"/>
<path d="M2738 603 c6 -2 12 -11 12 -18 0 -16 30 -35 55 -35 9 0 19 10 23 22
5 21 6 21 13 2 4 -10 8 -34 8 -51 1 -35 21 -47 21 -13 0 25 -26 90 -36 90 -4
0 -12 -7 -19 -16 -9 -14 -16 -14 -33 -5 -12 6 -22 16 -22 21 0 6 -8 10 -17 9
-11 0 -13 -3 -5 -6z"/>
<path d="M514 575 c4 -17 2 -27 -7 -31 -18 -6 -14 -124 4 -135 7 -4 9 -19 5
-40 -4 -19 -8 -44 -9 -56 -1 -12 -4 -21 -7 -20 -6 2 -60 -52 -60 -60 0 -3 11
2 25 11 14 9 24 13 23 9 -1 -4 1 -18 6 -31 5 -16 1 -31 -14 -52 -25 -35 -33
-36 -86 -14 -22 9 -64 17 -95 18 -51 1 -61 5 -101 41 -41 37 -45 45 -52 101
-4 33 -4 73 -1 87 5 18 3 27 -5 27 -9 0 -11 -22 -8 -85 4 -70 8 -89 26 -108
28 -30 29 -46 0 -21 -20 18 -20 17 2 -13 29 -40 76 -63 128 -63 22 0 56 -7 75
-15 20 -8 49 -15 64 -14 l28 1 -25 8 c-24 8 -24 8 6 9 33 1 51 16 71 60 10 22
11 23 12 6 1 -11 -12 -35 -28 -53 -17 -17 -26 -32 -21 -32 4 0 24 19 43 42 33
40 37 41 54 26 23 -20 68 -35 59 -19 -4 6 -15 11 -25 11 -10 0 -25 8 -34 18
-28 30 -19 33 19 7 20 -14 44 -25 53 -24 10 0 6 5 -11 12 -35 16 -67 46 -82
77 -15 30 -12 258 4 274 5 5 10 24 10 41 l-1 30 -14 -30 -13 -30 -1 28 c-1 15
-6 27 -12 27 -7 0 -9 -10 -5 -25z m-240 -416 c17 0 25 -3 18 -6 -25 -10 -82 8
-93 29 l-12 21 28 -21 c15 -12 42 -22 59 -23z"/>
<path d="M588 575 c3 -20 9 -24 25 -19 19 6 20 3 14 -47 -3 -30 -4 -48 -1 -41
13 29 22 7 22 -54 0 -41 -4 -61 -9 -53 -6 10 -9 4 -9 -17 0 -17 7 -37 15 -44
10 -9 15 -9 15 -1 0 6 -4 11 -10 11 -22 0 -8 16 16 18 22 2 24 -1 19 -20 -6
-18 -4 -20 16 -15 13 4 28 7 32 7 4 0 3 9 -3 21 -6 11 -11 37 -10 57 3 56 -2
71 -10 32 l-7 -35 -2 38 c0 20 4 45 10 55 9 14 9 32 2 68 -9 40 -11 43 -12 19
-1 -16 -8 -59 -15 -95 l-12 -65 -14 79 c-11 57 -21 86 -38 103 -30 30 -40 29
-34 -2z"/>
<path d="M1280 582 c0 -10 15 -23 40 -34 38 -16 39 -15 54 5 14 21 15 18 17
-43 l1 -65 9 59 c11 74 3 91 -33 72 -23 -12 -30 -12 -57 5 -29 17 -31 18 -31
1z"/>
<path d="M192 565 c1 -17 -1 -35 -5 -42 -12 -19 8 -23 31 -7 15 10 22 25 21
47 0 29 -1 30 -9 10 -5 -13 -12 -23 -15 -23 -3 0 -10 10 -15 23 -9 20 -10 20
-8 -8z"/>
<path d="M1100 569 c0 -19 -2 -20 -17 -8 -15 13 -16 9 -11 -39 l5 -52 -32 0
-32 0 13 -57 c16 -69 17 -76 5 -69 -11 7 -8 -50 3 -61 5 -4 6 -3 2 4 -4 8 2
15 19 19 14 3 25 12 25 19 0 7 3 21 7 31 4 10 2 15 -3 11 -6 -3 -6 21 0 64 5
38 13 69 18 69 4 0 8 -6 8 -12 1 -7 10 -2 20 11 21 24 28 67 9 56 -6 -4 -13 2
-16 14 -7 27 -23 27 -23 0z"/>
<path d="M157 486 c-3 -8 -3 -24 0 -36 6 -22 6 -21 18 6 7 16 10 32 8 37 -7
12 -20 8 -26 -7z"/>
<path d="M1857 482 c-34 -3 -37 -5 -31 -29 4 -14 7 -54 8 -87 1 -35 5 -60 11
-58 6 1 11 7 11 12 1 6 2 15 3 20 2 16 31 12 37 -5 4 -8 10 -15 15 -15 5 0 4
11 -1 25 -10 27 -1 38 24 29 14 -6 16 0 10 37 -4 24 -11 46 -16 47 -4 2 -14 9
-21 15 -6 7 -29 11 -50 9z"/>
<path d="M290 467 c-16 -12 -40 -80 -40 -109 0 -9 10 -18 23 -22 19 -5 20 -8
7 -17 -12 -9 -12 -10 4 -5 16 5 17 4 7 -8 -16 -19 -6 -36 21 -36 20 0 20 0 -2
37 -14 25 -18 38 -10 43 6 4 10 20 8 35 -4 35 19 45 31 13 5 -13 19 -32 31
-43 l22 -20 -5 60 c-3 51 -8 62 -28 72 -30 16 -50 16 -69 0z"/>
<path d="M1218 468 c-26 -19 -35 -117 -13 -143 16 -20 16 -20 11 5 -4 18 1 31
20 47 14 12 25 24 25 27 -2 18 0 19 9 6 8 -12 10 -11 10 8 0 17 -6 22 -27 22
-49 0 -15 12 44 15 32 2 50 2 41 -1 -10 -3 -15 -11 -11 -21 5 -12 1 -14 -17
-8 -15 5 -20 4 -16 -4 4 -6 14 -11 22 -11 18 0 17 -10 -1 -34 -12 -16 -17 -17
-30 -6 -13 10 -15 9 -15 -9 0 -14 -4 -20 -12 -15 -8 5 -9 2 -5 -9 3 -10 2 -17
-3 -17 -19 0 -10 -18 13 -24 15 -4 26 0 36 14 7 11 18 20 24 20 5 0 15 7 22
17 22 30 33 6 28 -64 -3 -38 -2 -65 1 -61 4 3 9 12 10 20 2 7 6 21 11 30 6 16
5 35 -9 137 -2 18 -10 39 -18 46 -20 20 -129 29 -150 13z"/>
<path d="M2793 448 c1 -13 5 -25 8 -28 10 -9 21 -82 11 -76 -5 3 -7 -6 -4 -20
3 -17 9 -23 19 -20 8 3 18 6 22 6 4 0 8 24 10 52 1 29 7 55 12 59 6 3 1 9 -11
12 -15 4 -21 11 -17 21 5 12 -1 16 -23 16 -25 0 -29 -4 -27 -22z m55 -46 c4
-26 -5 -58 -14 -49 -3 3 -9 22 -14 42 -7 31 -6 36 8 33 10 -2 18 -14 20 -26z"/>
<path d="M101 396 c-1 -44 2 -57 10 -49 8 8 9 25 1 60 l-10 48 -1 -59z"/>
<path d="M2890 248 c-3 -31 -1 -53 3 -49 5 5 7 30 5 57 l-3 49 -5 -57z"/>
<path d="M1778 223 c23 -2 61 -2 85 0 23 2 4 4 -43 4 -47 0 -66 -2 -42 -4z"/>
<path d="M2120 220 c-19 -5 -11 -7 30 -7 38 -1 49 2 35 8 -24 9 -33 9 -65 -1z"/>
<path d="M2367 208 c2 -5 43 -8 90 -8 48 0 84 2 82 4 -8 8 -177 11 -172 4z"/>
<path d="M913 203 c26 -2 68 -2 95 0 26 2 4 3 -48 3 -52 0 -74 -1 -47 -3z"/>
<path d="M1238 203 c17 -2 47 -2 65 0 17 2 3 4 -33 4 -36 0 -50 -2 -32 -4z"/>
<path d="M2693 203 c26 -2 68 -2 95 0 26 2 4 3 -48 3 -52 0 -74 -1 -47 -3z"/>
</g>
</svg>
